<?xml version="1.0" encoding="utf-8"?>
<!-- Generator: Adobe Illustrator 16.0.0, SVG Export Plug-In . SVG Version: 6.00 Build 0)  -->
<!DOCTYPE svg PUBLIC "-//W3C//DTD SVG 1.1//EN" "http://www.w3.org/Graphics/SVG/1.1/DTD/svg11.dtd">
<svg version="1.1" id="레이어_1" xmlns="http://www.w3.org/2000/svg" xmlns:xlink="http://www.w3.org/1999/xlink" x="0px"
	 y="0px" width="80px" height="80px" viewBox="0 0 80 80" enable-background="new 0 0 80 80" xml:space="preserve">
<g>
	<path fill="#999999" d="M39.792,34.509c-8.129,0-14.743-6.614-14.743-14.743S31.663,5.023,39.792,5.023s14.743,6.614,14.743,14.743
		C54.535,27.896,47.921,34.509,39.792,34.509z M39.792,10.937c-4.869,0-8.83,3.961-8.83,8.83c0,4.868,3.961,8.829,8.83,8.829
		s8.829-3.961,8.829-8.829C48.621,14.898,44.661,10.937,39.792,10.937z"/>
	<path fill="#999999" d="M69.257,75.023c-1.633,0-2.956-1.323-2.956-2.957c0-14.616-11.892-26.508-26.509-26.508
		S13.284,57.45,13.284,72.066c0,1.634-1.324,2.957-2.957,2.957c-1.633,0-2.957-1.323-2.957-2.957
		c0-17.877,14.544-32.421,32.422-32.421c17.877,0,32.422,14.544,32.422,32.421C72.214,73.7,70.891,75.023,69.257,75.023z"/>
</g>
</svg>
