<?xml version="1.0" encoding="utf-8"?>
<!-- Generator: Adobe Illustrator 16.0.0, SVG Export Plug-In . SVG Version: 6.00 Build 0)  -->
<!DOCTYPE svg PUBLIC "-//W3C//DTD SVG 1.1//EN" "http://www.w3.org/Graphics/SVG/1.1/DTD/svg11.dtd">
<svg version="1.1" id="레이어_1" xmlns="http://www.w3.org/2000/svg" xmlns:xlink="http://www.w3.org/1999/xlink" x="0px"
	 y="0px" width="80px" height="80px" viewBox="0 0 80 80" enable-background="new 0 0 80 80" xml:space="preserve">
<g>
	<path fill="#999999" d="M40.243,59.42c-2.037,0-3.695-1.671-3.695-3.725c0-2.055,1.658-3.725,3.695-3.725
		c2.038,0,3.696,1.67,3.696,3.725C43.939,57.749,42.279,59.42,40.243,59.42z"/>
	<path fill="#999999" d="M43,43.284c0,1.5-1.216,2.716-2.716,2.716h-0.568C38.216,46,37,44.784,37,43.284V23.716
		c0-1.5,1.216-2.716,2.716-2.716h0.568c1.5,0,2.716,1.216,2.716,2.716V43.284z"/>
	<path fill="#999999" d="M39.998,78c-0.363,0-0.73-0.359-1.076-0.518c-0.105-0.049-0.208-0.243-0.306-0.307
		c-3.734-2.24-21.859-13.357-24.964-18.638c-3.1-5.271-5.247-38.689-5.646-45.328c-0.053-0.885,0.347-1.754,1.063-2.277
		c0.716-0.522,1.648-0.655,2.475-0.335c11.973,4.627,26.152-7.41,26.722-7.9c0.969-0.868,2.457-0.896,3.457-0.015
		c0.144,0.125,14.578,12.606,26.737,7.907c0.826-0.319,1.759-0.196,2.476,0.326c0.715,0.523,1.114,1.373,1.063,2.258
		c-0.398,6.639-2.546,40.024-5.646,45.294c-3.104,5.279-21.229,16.326-24.965,18.565c-0.098,0.063-0.199,0.398-0.304,0.445
		C40.732,77.641,40.366,78,40.003,78C40.001,78,39.999,78,39.998,78z M13.433,16.507c1.181,17.92,3.17,36.709,4.707,39.322
		c1.703,2.897,13.366,10.78,21.86,15.958c8.494-5.178,20.157-13.063,21.859-15.958c1.537-2.612,3.525-21.402,4.707-39.322
		c-1.34,0.244-2.68,0.355-4.004,0.355c-9.804,0-18.873-6.06-22.563-8.88C35.811,11.184,24.688,18.56,13.433,16.507z"/>
</g>
</svg>
