<?xml version="1.0" encoding="utf-8"?>
<!-- Generator: Adobe Illustrator 16.0.0, SVG Export Plug-In . SVG Version: 6.00 Build 0)  -->
<!DOCTYPE svg PUBLIC "-//W3C//DTD SVG 1.1//EN" "http://www.w3.org/Graphics/SVG/1.1/DTD/svg11.dtd">
<svg version="1.1" id="레이어_1" xmlns="http://www.w3.org/2000/svg" xmlns:xlink="http://www.w3.org/1999/xlink" x="0px"
	 y="0px" width="80px" height="80px" viewBox="0 0 80 80" enable-background="new 0 0 80 80" xml:space="preserve">
<circle fill="#71B85B" cx="40" cy="40" r="36"/>
<g>
	<path fill="#FFFFFF" d="M40.021,49.287c0.651,0.651,0.651,1.709,0,2.359l-3.539,3.539c-0.651,0.651-1.708,0.651-2.359,0
		l-15.18-15.179c-0.651-0.652-0.651-1.709,0-2.36l3.539-3.54c0.651-0.65,1.708-0.651,2.36,0L40.021,49.287z"/>
	<path fill="#FFFFFF" d="M36.583,55.187c-0.65,0.65-1.709,0.65-2.36,0l-3.539-3.539c-0.651-0.651-0.651-1.709,0-2.359l24.474-24.474
		c0.651-0.652,1.709-0.652,2.361,0l3.537,3.538c0.651,0.651,0.651,1.709,0,2.36L36.583,55.187z"/>
</g>
</svg>
