<?xml version="1.0" encoding="utf-8"?>
<!-- Generator: Adobe Illustrator 16.0.0, SVG Export Plug-In . SVG Version: 6.00 Build 0)  -->
<!DOCTYPE svg PUBLIC "-//W3C//DTD SVG 1.1//EN" "http://www.w3.org/Graphics/SVG/1.1/DTD/svg11.dtd">
<svg version="1.1" id="레이어_1" xmlns="http://www.w3.org/2000/svg" xmlns:xlink="http://www.w3.org/1999/xlink" x="0px"
	 y="0px" width="80px" height="80px" viewBox="0 0 80 80" enable-background="new 0 0 80 80" xml:space="preserve">
<g>
	<path fill="#999999" d="M72,66.68c0,4.594-3.727,8.32-8.32,8.32H16.321C11.726,75,8,71.273,8,66.68V40.321
		C8,35.726,11.726,32,16.321,32h47.357C68.273,32,72,35.726,72,40.321V66.68z M67,40.427C67,38.534,65.466,37,63.573,37H16.427
		C14.534,37,13,38.534,13,40.427v26.146C13,68.466,14.534,70,16.427,70h47.146C65.466,70,67,68.466,67,66.573V40.427z"/>
	<path fill="#999999" d="M56.898,37h-8.812C46.734,37,46,35.712,46,34.36V22.41c0-2.435-2.188-4.41-4.708-4.41h-1.843
		C36.882,18,35,20.053,35,22.411v11.95c0,1.352-1.225,2.64-2.577,2.64h-8.811C22.26,37,21,35.712,21,34.36V21.633
		C21,12.186,28.959,5,38.542,5h3.916C51.928,5,59,12.026,59,21.633V34.36C59,35.712,58.251,37,56.898,37z M51,32h3V21.633
		C54,14.771,49.184,9,42.458,9h-3.916C31.659,9,26,14.885,26,21.633V32h4v-9.589C30,17.308,34.137,13,39.449,13h1.843
		C46.475,13,51,17.308,51,22.411V32z"/>
	<path fill="#999999" d="M40.5,57.855c-1.352,0-2.5-1.096-2.5-2.446v-6.363c0-1.353,1.148-2.448,2.5-2.448
		c1.352,0,2.5,1.096,2.5,2.448v6.363C43,56.761,41.852,57.855,40.5,57.855z"/>
</g>
</svg>
