<?xml version="1.0" encoding="utf-8"?>
<!-- Generator: Adobe Illustrator 16.0.0, SVG Export Plug-In . SVG Version: 6.00 Build 0)  -->
<!DOCTYPE svg PUBLIC "-//W3C//DTD SVG 1.1//EN" "http://www.w3.org/Graphics/SVG/1.1/DTD/svg11.dtd">
<svg version="1.1" id="레이어_1" xmlns="http://www.w3.org/2000/svg" xmlns:xlink="http://www.w3.org/1999/xlink" x="0px"
	 y="0px" width="80px" height="80px" viewBox="0 0 80 80" enable-background="new 0 0 80 80" xml:space="preserve">
<circle fill="#D93025" cx="40" cy="40" r="36"/>
<path fill="#FFFFFF" d="M57.5,51.467c0.667,0.665,0.667,1.747,0,2.412L53.879,57.5c-0.666,0.667-1.747,0.667-2.412,0L22.501,28.534
	c-0.667-0.667-0.667-1.748,0-2.415l3.62-3.62c0.666-0.667,1.748-0.667,2.415,0L57.5,51.467z"/>
<path fill="#FFFFFF" d="M28.534,57.5c-0.666,0.667-1.749,0.667-2.415,0l-3.62-3.621c-0.667-0.666-0.666-1.747,0-2.412l28.965-28.965
	c0.666-0.667,1.748-0.667,2.414,0l3.62,3.62c0.666,0.666,0.666,1.748,0,2.415L28.534,57.5z"/>
</svg>
